<?xml version="1.0" encoding="UTF-8" standalone="no"?>
<!-- Created with Inkscape (http://www.inkscape.org/) -->

<svg width="54.099998cm" height="41cm" viewBox="0 0 540.99997 410" version="1.1" id="svg9162" inkscape:version="1.3.2 (091e20e, 2023-11-25, custom)" sodipodi:docname="letra_O.svg" xmlns:inkscape="http://www.inkscape.org/namespaces/inkscape" xmlns:sodipodi="http://sodipodi.sourceforge.net/DTD/sodipodi-0.dtd" xmlns="http://www.w3.org/2000/svg" xmlns:svg="http://www.w3.org/2000/svg">
  <sodipodi:namedview id="namedview9164" pagecolor="#ffffff" bordercolor="#666666" borderopacity="1.0" inkscape:pageshadow="2" inkscape:pageopacity="0.0" inkscape:pagecheckerboard="0" inkscape:document-units="cm" showgrid="false" width="49cm" units="cm" inkscape:zoom="0.70710678" inkscape:cx="796.90934" inkscape:cy="709.2281" inkscape:window-width="2560" inkscape:window-height="1369" inkscape:window-x="-8" inkscape:window-y="-8" inkscape:window-maximized="1" inkscape:current-layer="layer1" inkscape:showpageshadow="0" inkscape:deskcolor="#505050" showguides="true">
    <sodipodi:guide position="24.772524,447.55834" orientation="0,-1" id="guide1" inkscape:locked="false"/>
  </sodipodi:namedview>
  <defs id="defs9159">
    <rect x="714.29438" y="700.70315" width="472.6726" height="268.80423" id="rect23"/>
    <inkscape:path-effect effect="spiro" id="path-effect22" is_visible="true" lpeversion="1"/>
    <inkscape:path-effect effect="spiro" id="path-effect19" is_visible="true" lpeversion="1"/>
    <inkscape:path-effect effect="spiro" id="path-effect18" is_visible="true" lpeversion="1"/>
    <inkscape:path-effect effect="spiro" id="path-effect17" is_visible="true" lpeversion="1"/>
    <inkscape:path-effect effect="spiro" id="path-effect14" is_visible="true" lpeversion="1"/>
    <inkscape:path-effect effect="spiro" id="path-effect10" is_visible="true" lpeversion="1"/>
    <linearGradient id="swatch3" inkscape:swatch="solid">
      <stop style="stop-color:#000000;stop-opacity:1;" offset="0" id="stop3"/>
    </linearGradient>
    <inkscape:perspective sodipodi:type="inkscape:persp3d" inkscape:vp_x="0 : 205 : 1" inkscape:vp_y="0 : 1000 : 0" inkscape:vp_z="540.99997 : 205 : 1" inkscape:persp3d-origin="270.49998 : 136.66667 : 1" id="perspective12"/>
    <linearGradient id="swatch9" inkscape:swatch="solid">
      <stop style="stop-color:#1d00cb;stop-opacity:0.91729325;" offset="0" id="stop9"/>
    </linearGradient>
    <rect x="888.12612" y="-1459.4684" width="989.94949" height="441.23463" id="rect8"/>
    <rect x="729.7342" y="-22.627417" width="345.06811" height="124.45079" id="rect7"/>
    <rect x="990" y="670" width="366" height="162" id="rect5"/>
    <rect x="179.18899" y="31.889543" width="419.85449" height="102.94184" id="rect2"/>
    <pattern id="EMFhbasepattern" patternUnits="userSpaceOnUse" width="6" height="6" x="0" y="0"/>
    <rect x="179.189" y="31.889544" width="419.85449" height="102.94184" id="rect2-5"/>
    <rect x="179.189" y="31.889544" width="419.85449" height="102.94184" id="rect2-3"/>
    <rect x="179.189" y="31.889544" width="419.85449" height="102.94184" id="rect2-3-4"/>
    <rect x="179.189" y="31.889544" width="419.85449" height="102.94184" id="rect2-3-4-1"/>
    <rect x="179.189" y="31.889544" width="419.85449" height="102.94184" id="rect2-3-4-0"/>
    <rect x="179.189" y="31.889544" width="419.85449" height="102.94184" id="rect2-3-4-04"/>
    <rect x="179.189" y="31.889544" width="419.85449" height="102.94184" id="rect2-3-4-4"/>
  </defs>
  <g inkscape:label="Dibujo" inkscape:groupmode="layer" id="layer1" style="display:inline" alba="DRAW">
    <path d="m 420.2638,206.32918 q 0,71.89995 -42.14632,113.51239 -42.14631,41.61242 -112.89187,41.61242 -71.34761,0 -113.49392,-41.61242 -41.84529,-41.61244 -41.84529,-113.51239 0,-71.89996 41.84529,-113.512389 42.14631,-41.875797 113.49392,-41.875797 70.74556,0 112.89187,41.875797 42.14632,41.612429 42.14632,113.512389 z m -58.40284,0 q 0,-57.15126 -25.58876,-84.80508 -25.58877,-27.91721 -71.04659,-27.91721 -46.05987,0 -71.64864,27.91721 -25.28774,27.65382 -25.28774,84.80508 0,55.30765 25.58877,84.01498 25.58877,28.44393 71.34761,28.44393 45.15679,0 70.74556,-28.18057 25.88979,-28.44394 25.88979,-84.27834 z" id="text1-4-9-2" style="font-size:26.6667px;-inkscape-font-specification:sans-serif;white-space:pre;stroke-width:40.8664" inkscape:label="data" aria-label="o"/>
  </g>
  
  
</svg>