<?xml version="1.0" encoding="UTF-8" standalone="no"?>
<!-- Created with Inkscape (http://www.inkscape.org/) -->

<svg width="54.099998cm" height="41cm" viewBox="0 0 540.99997 410" version="1.1" id="svg9162" inkscape:version="1.3.2 (091e20e, 2023-11-25, custom)" sodipodi:docname="num_9.svg" xmlns:inkscape="http://www.inkscape.org/namespaces/inkscape" xmlns:sodipodi="http://sodipodi.sourceforge.net/DTD/sodipodi-0.dtd" xmlns="http://www.w3.org/2000/svg" xmlns:svg="http://www.w3.org/2000/svg">
  <sodipodi:namedview id="namedview9164" pagecolor="#ffffff" bordercolor="#666666" borderopacity="1.0" inkscape:pageshadow="2" inkscape:pageopacity="0.0" inkscape:pagecheckerboard="0" inkscape:document-units="cm" showgrid="false" width="49cm" units="cm" inkscape:zoom="0.70710678" inkscape:cx="978.63579" inkscape:cy="598.91944" inkscape:window-width="2560" inkscape:window-height="1369" inkscape:window-x="-8" inkscape:window-y="-8" inkscape:window-maximized="1" inkscape:current-layer="g4" inkscape:showpageshadow="0" inkscape:deskcolor="#505050" showguides="true">
    <sodipodi:guide position="24.772524,447.55834" orientation="0,-1" id="guide1" inkscape:locked="false"/>
  </sodipodi:namedview>
  <defs id="defs9159">
    <rect x="394.56558" y="458.20519" width="132.93608" height="14.142136" id="rect4"/>
    <rect x="714.29438" y="700.70315" width="472.6726" height="268.80423" id="rect23"/>
    <inkscape:path-effect effect="spiro" id="path-effect22" is_visible="true" lpeversion="1"/>
    <inkscape:path-effect effect="spiro" id="path-effect19" is_visible="true" lpeversion="1"/>
    <inkscape:path-effect effect="spiro" id="path-effect18" is_visible="true" lpeversion="1"/>
    <inkscape:path-effect effect="spiro" id="path-effect17" is_visible="true" lpeversion="1"/>
    <inkscape:path-effect effect="spiro" id="path-effect14" is_visible="true" lpeversion="1"/>
    <inkscape:path-effect effect="spiro" id="path-effect10" is_visible="true" lpeversion="1"/>
    <linearGradient id="swatch3" inkscape:swatch="solid">
      <stop style="stop-color:#000000;stop-opacity:1;" offset="0" id="stop3"/>
    </linearGradient>
    <inkscape:perspective sodipodi:type="inkscape:persp3d" inkscape:vp_x="0 : 205 : 1" inkscape:vp_y="0 : 1000 : 0" inkscape:vp_z="540.99997 : 205 : 1" inkscape:persp3d-origin="270.49998 : 136.66667 : 1" id="perspective12"/>
    <linearGradient id="swatch9" inkscape:swatch="solid">
      <stop style="stop-color:#1d00cb;stop-opacity:0.91729325;" offset="0" id="stop9"/>
    </linearGradient>
    <rect x="888.12612" y="-1459.4684" width="989.94949" height="441.23463" id="rect8"/>
    <rect x="729.7342" y="-22.627417" width="345.06811" height="124.45079" id="rect7"/>
    <rect x="990" y="670" width="366" height="162" id="rect5"/>
    <rect x="179.18899" y="31.889543" width="419.85449" height="102.94184" id="rect2"/>
    <pattern id="EMFhbasepattern" patternUnits="userSpaceOnUse" width="6" height="6" x="0" y="0"/>
    <rect x="179.189" y="31.889544" width="419.85449" height="102.94184" id="rect2-5"/>
    <rect x="179.189" y="31.889544" width="419.85449" height="102.94184" id="rect2-3"/>
    <rect x="179.189" y="31.889544" width="419.85449" height="102.94184" id="rect2-3-4"/>
    <rect x="179.189" y="31.889544" width="419.85449" height="102.94184" id="rect2-3-4-1"/>
    <rect x="179.189" y="31.889544" width="419.85449" height="102.94184" id="rect2-3-4-0"/>
    <rect x="179.189" y="31.889544" width="419.85449" height="102.94184" id="rect2-3-4-04"/>
    <rect x="179.189" y="31.889544" width="419.85449" height="102.94184" id="rect2-3-4-4"/>
    <rect x="179.189" y="31.889544" width="419.85449" height="102.94184" id="rect2-3-4-40"/>
    <rect x="179.189" y="31.889544" width="419.85449" height="102.94184" id="rect2-3-4-40-9"/>
    <rect x="179.189" y="31.889544" width="419.85449" height="102.94184" id="rect2-3-4-40-92"/>
    <rect x="179.189" y="31.889544" width="419.85449" height="102.94184" id="rect2-3-4-40-3"/>
    <rect x="179.189" y="31.889544" width="419.85449" height="102.94184" id="rect2-3-4-40-39"/>
    <rect x="179.189" y="31.889544" width="419.85449" height="102.94184" id="rect2-3-4-40-0"/>
    <rect x="179.189" y="31.889544" width="419.85449" height="102.94184" id="rect2-3-4-40-7"/>
    <rect x="179.189" y="31.889544" width="419.85449" height="102.94184" id="rect2-3-4-40-05"/>
    <rect x="179.189" y="31.889544" width="419.85449" height="102.94184" id="rect2-3-4-40-95"/>
    <rect x="179.189" y="31.889544" width="419.85449" height="102.94184" id="rect2-3-4-40-6"/>
    <rect x="179.189" y="31.889544" width="419.85449" height="102.94184" id="rect2-3-4-40-31"/>
    <rect x="179.189" y="31.889544" width="419.85449" height="102.94184" id="rect2-3-4-40-4"/>
    <rect x="179.189" y="31.889544" width="419.85449" height="102.94184" id="rect2-3-4-40-96"/>
    <rect x="179.189" y="31.889544" width="419.85449" height="102.94184" id="rect2-3-4-40-61"/>
    <rect x="179.189" y="31.889544" width="419.85449" height="102.94184" id="rect2-3-4-40-62"/>
    <rect x="179.189" y="31.889544" width="419.85449" height="102.94184" id="rect2-3-4-40-09"/>
    <rect x="179.189" y="31.889544" width="419.85449" height="102.94184" id="rect2-3-4-40-5"/>
    <rect x="179.189" y="31.889544" width="419.85449" height="102.94184" id="rect2-3-4-40-8"/>
    <rect x="179.189" y="31.889544" width="419.85449" height="102.94184" id="rect2-3-4-40-79"/>
    <rect x="179.189" y="31.889544" width="419.85449" height="102.94184" id="rect2-3-4-40-398"/>
    <rect x="179.189" y="31.889544" width="419.85449" height="102.94184" id="rect2-3-4-40-1"/>
    <rect x="179.189" y="31.889544" width="419.85449" height="102.94184" id="rect2-3-4-40-51"/>
    <rect x="179.189" y="31.889544" width="419.85449" height="102.94184" id="rect2-3-4-40-619"/>
    <rect x="179.189" y="31.889544" width="419.85449" height="102.94184" id="rect2-3-4-40-43"/>
    <rect x="179.189" y="31.889544" width="419.85449" height="102.94184" id="rect2-3-4-40-67"/>
    <rect x="179.189" y="31.889544" width="419.85449" height="102.94184" id="rect2-3-4-40-68"/>
    <rect x="179.189" y="31.889544" width="419.85449" height="102.94184" id="rect2-3-4-40-16"/>
    <rect x="179.189" y="31.889544" width="419.85449" height="102.94184" id="rect2-3-4-40-2"/>
    <rect x="179.189" y="31.889544" width="419.85449" height="102.94184" id="rect2-3-4-40-50"/>
    <rect x="179.189" y="31.889544" width="419.85449" height="102.94184" id="rect2-3-4-40-93"/>
  </defs>
  <g inkscape:label="Dibujo" inkscape:groupmode="layer" id="layer1" style="display:inline" alba="DRAW">
    <path d="m 194.38478,45.358122 q 0,2.539066 -0.58593,4.609381 -0.57292,2.070315 -1.7448,3.52865 -1.18489,1.484377 -2.96875,2.29167 -1.78386,0.807293 -4.19271,0.807293 -0.67709,0 -1.27605,-0.07813 -0.59896,-0.0651 -1.06771,-0.221355 v -2.486982 h 0.13021 q 0.37761,0.195313 1.06771,0.377604 0.69011,0.169272 1.53646,0.169272 2.87761,0 4.50521,-1.718753 1.64063,-1.731773 1.90105,-4.765631 -1.21094,0.729168 -2.27865,1.041668 -1.06771,0.312501 -2.33073,0.312501 -1.19792,0 -2.17448,-0.234376 -0.96355,-0.234375 -1.94011,-0.911459 -1.14584,-0.794272 -1.73177,-2.018232 -0.57292,-1.22396 -0.57292,-2.929691 0,-2.968754 1.95313,-4.830735 1.95312,-1.861982 4.76563,-1.861982 1.40625,0 2.60417,0.442709 1.19792,0.429688 2.09635,1.302085 1.10678,1.080731 1.70574,2.786462 0.59895,1.69271 0.59895,4.388026 z m -2.63021,-0.559896 q 0,-2.018232 -0.41666,-3.242192 -0.41667,-1.22396 -1.14584,-1.901044 -0.61198,-0.585938 -1.3151,-0.833334 -0.70313,-0.260417 -1.52344,-0.260417 -1.87501,0 -2.96876,1.171876 -1.08073,1.171877 -1.08073,3.294275 0,1.236981 0.35156,2.018232 0.35157,0.781251 1.1849,1.367189 0.58594,0.403647 1.28907,0.546876 0.70312,0.130208 1.5625,0.130208 1.01562,0 2.05729,-0.273437 1.04167,-0.273438 1.95313,-0.794272 0.013,-0.273438 0.026,-0.533855 0.026,-0.273438 0.026,-0.690105 z" id="text1-4-9-6-2" style="font-size:26.6667px;-inkscape-font-specification:sans-serif;white-space:pre;stroke-width:1.88976" inkscape:label="data" transform="matrix(16.377903,0,0,15.449783,-2800.6121,-512.26608)" aria-label="9"/>
  </g>
  
  
</svg>